<?xml version="1.0" encoding="UTF-8" standalone="no"?><!DOCTYPE svg PUBLIC "-//W3C//DTD SVG 1.1//EN" "http://www.w3.org/Graphics/SVG/1.1/DTD/svg11.dtd"><svg width="100%" height="100%" viewBox="0 0 256 256" version="1.1" xmlns="http://www.w3.org/2000/svg" xmlns:xlink="http://www.w3.org/1999/xlink" xml:space="preserve" style="fill-rule:evenodd;clip-rule:evenodd;stroke-linejoin:round;stroke-miterlimit:1.41421;"><circle cx="128" cy="128" r="120" style="fill:#fff;"/><path d="M100.146,70.068l0.545,0.064l0.538,0.101l0.531,0.138l0.519,0.174l0.507,0.209l0.491,0.244l0.472,0.277l79.013,50l0.456,0.311l0.434,0.343l0.408,0.371l0.382,0.399l0.354,0.425l0.323,0.448l0.291,0.469l0.258,0.489l0.223,0.505l0.188,0.519l0.152,0.531l0.114,0.541l0.076,0.547l0.039,0.551l0,0.552l-0.039,0.551l-0.076,0.547l-0.114,0.541l-0.152,0.531l-0.188,0.519l-0.223,0.505l-0.258,0.489l-0.291,0.469l-0.323,0.448l-0.354,0.425l-0.382,0.399l-0.408,0.371l-0.434,0.343l-0.456,0.311l-79.013,50l-0.472,0.277l-0.491,0.244l-0.507,0.209l-0.519,0.174l-0.531,0.138l-0.538,0.101l-0.545,0.064l-0.547,0.026l-0.548,-0.012l-0.546,-0.049l-0.541,-0.087l-0.533,-0.124l-0.524,-0.16l-0.512,-0.196l-0.497,-0.231l-0.48,-0.264l-0.461,-0.297l-0.439,-0.327l-0.416,-0.357l-0.39,-0.385l-0.363,-0.411l-0.333,-0.435l-0.303,-0.457l-0.27,-0.476l-0.238,-0.494l-0.202,-0.509l-0.167,-0.522l-0.131,-0.532l-0.094,-0.54l-0.057,-0.545l-0.019,-0.548l0,-100l0.019,-0.548l0.057,-0.545l0.094,-0.54l0.131,-0.532l0.167,-0.522l0.202,-0.509l0.238,-0.494l0.27,-0.476l0.303,-0.457l0.333,-0.435l0.363,-0.411l0.39,-0.385l0.416,-0.357l0.439,-0.327l0.461,-0.297l0.48,-0.264l0.497,-0.231l0.512,-0.196l0.524,-0.16l0.533,-0.124l0.541,-0.087l0.546,-0.049l0.548,-0.012l0.547,0.026Zm-0.652,107.932l79.012,-50l-79.012,-50l0,100Z" style="fill:#ec0000;"/></svg>