<?xml version="1.0" encoding="UTF-8" standalone="no"?><!DOCTYPE svg PUBLIC "-//W3C//DTD SVG 1.1//EN" "http://www.w3.org/Graphics/SVG/1.1/DTD/svg11.dtd"><svg width="100%" height="100%" viewBox="0 0 256 256" version="1.1" xmlns="http://www.w3.org/2000/svg" xmlns:xlink="http://www.w3.org/1999/xlink" xml:space="preserve" style="fill-rule:evenodd;clip-rule:evenodd;stroke-linejoin:round;stroke-miterlimit:1.41421;"><path d="M89.517,59.216c0,0 -49.639,42.173 -52.085,94.7c0.589,-17.37 61.61,-39.488 71.025,18.94c2.514,15.602 -11.07,42.615 -52.085,42.615c-41.014,0 -56.555,-41.907 -47.35,-75.76c11.166,-41.063 49.017,-87.196 66.29,-94.7c0,0 17.251,-4.309 14.205,14.205Z" style="fill:#ec0000;"/><path d="M226.832,59.216c0,0 -49.639,42.173 -52.085,94.7c0.589,-17.37 61.61,-39.488 71.025,18.94c2.514,15.602 -11.071,42.615 -52.085,42.615c-41.015,0 -56.555,-41.907 -47.35,-75.76c11.166,-41.063 49.017,-87.196 66.29,-94.7c0,0 17.251,-4.309 14.205,14.205Z" style="fill:#ec0000;"/></svg>